<mxfile host="app.diagrams.net" agent="Mozilla/5.0 (Windows NT 10.0; Win64; x64) AppleWebKit/537.36 (KHTML, like Gecko) Chrome/127.0.0.0 Safari/537.36 OPR/113.0.0.0" version="24.7.16">
  <diagram name="Page-1" id="gQNSO0fldPUX15JqT65q">
    <mxGraphModel dx="1814" dy="928" grid="1" gridSize="10" guides="1" tooltips="1" connect="1" arrows="1" fold="1" page="1" pageScale="1" pageWidth="850" pageHeight="1100" math="0" shadow="0">
      <root>
        <mxCell id="0" />
        <mxCell id="1" parent="0" />
        <mxCell id="TzVBnnGBpjZlhCnrMLts-2" value="" style="rounded=1;whiteSpace=wrap;html=1;" vertex="1" parent="1">
          <mxGeometry x="40" y="40" width="760" height="120" as="geometry" />
        </mxCell>
        <mxCell id="TzVBnnGBpjZlhCnrMLts-3" value="" style="rounded=1;whiteSpace=wrap;html=1;" vertex="1" parent="1">
          <mxGeometry x="80" y="320" width="200" height="280" as="geometry" />
        </mxCell>
        <mxCell id="TzVBnnGBpjZlhCnrMLts-4" value="" style="rounded=1;whiteSpace=wrap;html=1;" vertex="1" parent="1">
          <mxGeometry x="560" y="320" width="200" height="280" as="geometry" />
        </mxCell>
        <mxCell id="TzVBnnGBpjZlhCnrMLts-5" value="" style="shape=flexArrow;endArrow=classic;html=1;rounded=0;endWidth=31.428571428571427;endSize=18.171428571428567;width=36.19047619047619;" edge="1" parent="1">
          <mxGeometry width="50" height="50" relative="1" as="geometry">
            <mxPoint x="419.44" y="360" as="sourcePoint" />
            <mxPoint x="419.44" y="240" as="targetPoint" />
          </mxGeometry>
        </mxCell>
        <mxCell id="TzVBnnGBpjZlhCnrMLts-6" value="" style="shape=flexArrow;endArrow=classic;html=1;rounded=0;endWidth=31.428571428571427;endSize=18.171428571428567;width=36.19047619047619;" edge="1" parent="1">
          <mxGeometry width="50" height="50" relative="1" as="geometry">
            <mxPoint x="419.44" y="520" as="sourcePoint" />
            <mxPoint x="419.44" y="640" as="targetPoint" />
          </mxGeometry>
        </mxCell>
      </root>
    </mxGraphModel>
  </diagram>
</mxfile>
